<svg width="132" height="24" viewBox="0 0 132 24" fill="none" xmlns="http://www.w3.org/2000/svg"><path d="M42.2081 2.44287C43.4382 2.46398 44.6685 2.46044 45.8985 2.43226C45.9399 4.02847 45.9035 5.78824 45.9037 7.39486L45.9089 17.1072L42.1911 17.1032C42.1998 16.1953 42.1796 15.4738 42.3289 14.574C41.0821 16.6779 39.8258 17.5161 37.303 17.1424L37.2901 17.1402C37.1445 17.1135 37.0049 17.0889 36.8602 17.0554C35.807 16.8075 34.8968 16.1478 34.3329 15.2235C32.9255 12.9515 33.0276 7.9385 35.551 6.46162C36.9058 5.66872 39.0971 5.54146 40.5171 6.26161C41.4191 6.71909 41.8828 7.48098 42.3834 8.30051C42.1438 6.46869 42.1903 4.3111 42.2081 2.44287ZM40.1055 14.1697C42.0448 13.9733 42.2039 12.3856 42.0736 10.7611C41.9333 9.01118 40.8004 8.42002 39.16 8.59966C39.1412 8.60166 39.1225 8.60417 39.1038 8.60722C38.6268 8.64869 37.9939 8.71246 37.6865 9.12672C37.0891 9.93172 37.1103 11.2589 37.1695 12.2075C37.2915 14.157 38.4652 14.2906 40.1055 14.1697Z" fill="white"/><path d="M124.325 2.44128C125.555 2.46048 126.784 2.459 128.013 2.43683C128.051 4.11009 128.017 5.89659 128.017 7.58434L128.011 17.109C126.784 17.099 125.556 17.1002 124.327 17.1123C124.317 16.1689 124.3 15.474 124.451 14.5432C123.375 16.6999 121.799 17.4868 119.434 17.1434C119.268 17.1174 119.065 17.0738 118.903 17.0339C117.864 16.7732 116.971 16.1065 116.425 15.1826C115.049 12.8942 115.156 7.881 117.723 6.43284C118.904 5.76653 120.515 5.63766 121.823 5.9522C123.21 6.28597 123.805 7.15062 124.486 8.29327C124.305 6.17159 124.325 4.56365 124.325 2.44128ZM122.361 14.1582C124.157 13.9473 124.365 12.1713 124.185 10.6857C123.959 8.81241 122.892 8.51125 121.217 8.60518C120.751 8.65735 120.054 8.73074 119.775 9.15922C119.11 10.178 119.005 12.9532 119.927 13.8148C120.402 14.2586 121.766 14.2136 122.361 14.1582Z" fill="white"/><path d="M90.5077 6.10429C91.4688 6.02408 93.2701 6.1206 94.3818 6.08895C93.3589 9.68735 92.1914 13.5536 91.0738 17.1175C90.7578 17.0999 90.1715 17.0533 89.8807 17.1512L89.8998 17.2434L90.0646 17.2402C91.8419 17.6326 92.1223 19.9301 90.9639 21.0918C89.7489 22.3104 87.9003 22.1386 86.3137 22.1342L83.5944 22.1343L83.5908 19.1039C84.4454 19.1226 88.4691 19.344 88.8397 18.6763C89.9713 16.6379 85.7635 17.1126 84.9123 17.1199C83.8264 13.5396 82.8133 9.71137 81.7939 6.09563C82.6165 6.11034 83.4393 6.11036 84.262 6.0957C84.7227 6.09456 85.1836 6.09677 85.6445 6.1023C85.9463 6.99892 86.1808 8.04708 86.4323 8.96599C86.9075 10.702 87.3774 12.4496 87.7872 14.2016C87.8652 14.5344 87.8202 14.952 87.9816 15.2586L88.0679 15.2282C88.2506 14.7668 88.2519 13.9784 88.3956 13.4675L90.5077 6.10429Z" fill="white"/><path d="M52.1856 5.83187C54.1875 5.54371 56.9484 6.13289 58.1024 7.91424C59.0405 9.36235 59.0706 10.7498 59.0245 12.3905C56.291 12.3441 53.4213 12.3846 50.6773 12.3964C50.7333 12.5788 50.8474 13.0161 50.933 13.1666C52.0336 15.1028 54.1579 14.8899 55.1976 13.1346C56.1774 13.1675 57.2319 13.1492 58.2172 13.1492L58.886 13.1314C58.6958 13.9456 58.4843 14.6303 57.9388 15.2934C56.0333 17.6101 51.1368 17.6453 48.9026 15.8539C47.4553 14.6777 46.911 12.6861 47.0421 10.8831C47.2825 7.57393 49.0106 6.13476 52.1856 5.83187ZM50.8115 10.5481L53.351 10.5626C53.98 10.5595 54.6986 10.5706 55.3181 10.5322C55.023 8.75407 54.4134 8.38615 52.6707 8.45985C51.4467 8.75248 50.9334 9.26761 50.8115 10.5481Z" fill="white"/><path d="M96.194 5.93256L99.135 5.93181C100.863 5.93093 102.686 5.78161 104.059 7.09167C105.272 8.24991 105.126 10.0146 105.12 11.5753C105.114 12.4462 105.116 13.3172 105.127 14.1879L106.025 14.1859L106.03 17.1061C103.189 17.0757 101.853 17.7162 101.885 14.1999C101.505 15.1679 101.309 15.73 100.553 16.4745C98.8692 17.8412 94.9087 17.6203 94.4389 15.0407C93.7659 11.3449 95.7312 9.8819 99.2243 10.1365C99.6756 10.1694 101.14 10.1747 101.553 10.0781L101.583 9.97478C101.315 8.72047 100.36 9.0303 99.348 9.03278C98.2903 9.02752 97.2327 9.03089 96.1753 9.04293C96.172 8.00611 96.1783 6.96927 96.194 5.93256ZM100.496 13.952C101.14 13.5414 101.309 13.3085 101.638 12.611C100.624 12.5961 99.6094 12.5965 98.595 12.6126C96.8181 12.8208 97.7616 14.981 100.496 13.952Z" fill="white"/><path d="M22.8122 5.93368L26.6483 5.93057C28.1149 5.9304 29.6043 6.00146 30.7171 7.12027C31.1284 7.54055 31.4234 8.06074 31.573 8.62969C31.8232 9.57127 31.7226 13.0321 31.7175 14.1903L32.6412 14.1755C32.6525 15.1527 32.653 16.13 32.6428 17.1072C29.7362 17.1028 28.628 17.6797 28.4836 14.2909C28.1287 15.1999 27.9552 15.6669 27.2876 16.3888C25.8921 17.6104 23.2193 17.6217 21.8293 16.3888C20.5445 15.2494 20.6816 12.3458 21.8591 11.1643C23.2697 9.74904 26.3872 10.1573 28.3182 10.1185C28.2011 9.7944 27.9673 9.10745 27.5448 9.0781C25.9972 8.97056 24.3733 9.01386 22.8168 9.05361L22.8122 5.93368ZM27.0731 13.9709C27.7838 13.5796 27.9174 13.3454 28.237 12.6097C27.3501 12.6016 26.169 12.5721 25.2897 12.6125C23.4111 12.7784 24.4091 14.974 27.0731 13.9709Z" fill="white"/><path d="M74.3963 5.76886C75.5694 5.58959 78.0334 5.88015 78.9838 6.6058C80.0201 7.3969 80.2787 8.07212 80.5102 9.27209C79.5059 9.36903 78.5003 9.45309 77.4938 9.52428L77.4882 9.51607C77.249 9.17273 77.1275 8.95992 76.7123 8.80052C75.9072 8.49129 73.3177 8.35139 72.9458 9.29201C73.0291 9.99927 74.5832 10.0778 75.1681 10.1224C77.342 10.2883 80.5781 10.7741 80.6676 13.5754C80.7638 16.5848 77.603 17.1894 75.2007 17.242C74.0284 17.3296 72.1248 17.081 71.152 16.4545C70.0228 15.7272 69.6529 14.8853 69.3484 13.6444C70.3195 13.4296 71.4478 13.2632 72.4512 13.0602C73.0409 14.3403 73.9567 14.418 75.2583 14.4181C75.8046 14.4181 77.316 14.3639 77.2972 13.5473C76.7881 12.0796 69.6434 13.3695 69.5964 9.72331C69.5573 6.68983 71.8589 5.96941 74.3963 5.76886Z" fill="white"/><path d="M7.96558 2.47509C8.04635 2.4555 8.74814 2.43648 8.87742 2.43167C8.885 3.65791 8.84977 4.87119 8.88928 6.10073C9.8095 6.12641 10.8019 6.09324 11.7269 6.07406C11.7263 7.05862 11.714 8.06035 11.7671 9.04222C10.4056 9.02544 7.68236 8.72164 6.65553 9.67626C5.78314 10.4873 5.85855 12.5622 6.69398 13.4007C7.74299 14.4535 10.1668 14.135 11.5784 14.1475C11.6308 14.9449 11.594 16.2938 11.5934 17.1395C10.9722 17.0846 10.1474 17.1032 9.50724 17.1023C8.32861 17.1042 7.44842 17.1652 6.20687 16.9332C2.71937 16.2815 1.29416 11.2956 4.40273 9.30232C4.59879 9.17661 4.93041 9.13199 5.18559 8.97872C5.02209 8.86452 4.55462 9.02579 4.29986 9.02748C3.71385 9.03138 3.12191 9.03965 2.53616 9.05377L2.53418 6.09925C3.49343 6.09368 4.45271 6.10111 5.41175 6.12158C5.39201 4.04631 5.52857 2.73831 7.96558 2.47509Z" fill="white"/><path d="M20.9415 5.78922C21.0464 5.95784 20.9784 8.66856 20.9734 9.09585C20.9526 9.09528 20.932 9.09484 20.9113 9.09457C17.0947 9.0442 17.0504 10.2229 17.0618 13.5166C17.07 14.7143 17.0682 15.9119 17.0562 17.1094C15.8185 17.1011 14.5808 17.1003 13.3433 17.1072L13.3449 14.2258L13.3359 6.09175C14.44 6.10287 15.5442 6.1034 16.6483 6.09334C16.749 7.08798 16.6844 8.16281 16.838 9.17259C17.4965 6.22911 17.8418 5.77704 20.9415 5.78922Z" fill="white"/><path d="M66.889 5.82994C67.2955 5.77634 67.9121 5.78806 68.3289 5.79741C68.3222 6.89571 68.3274 7.99405 68.3445 9.09224C67.0394 9.05732 64.7995 9.18996 64.5314 10.8719C64.2177 12.8392 64.591 15.1104 64.4184 17.1051C63.189 17.0997 61.9594 17.101 60.73 17.1087L60.7273 15.8871L60.7168 6.0934C61.6416 6.04179 63.0485 6.08416 64.0093 6.08321C64.1273 6.96898 64.1068 8.22277 64.198 9.19082C64.7839 7.29341 64.5031 6.14402 66.889 5.82994Z" fill="white"/><path d="M113.415 5.83036C113.916 5.78212 114.355 5.78804 114.855 5.79002C114.86 6.89117 114.858 7.99234 114.851 9.09347C112.854 9.08601 111.002 9.26239 110.947 11.7312C110.907 13.5157 111.004 15.3303 110.941 17.1095C109.756 17.0775 108.45 17.1051 107.256 17.1061L107.251 15.7096L107.249 6.09552C107.797 6.10069 110.066 5.99526 110.397 6.18665C110.481 6.2726 110.572 6.40146 110.579 6.51981C110.634 7.42809 110.64 8.36035 110.721 9.26759C111.274 7.40398 110.995 6.12026 113.415 5.83036Z" fill="white"/></svg>